{"title":"Elementary S02E10 HDTV x264 AAC [GWC].mp4","uid":9305291,"size":135168647,"categoryP":"video","categoryS":"tv_shows","magnet":"?xt=urn:btih:fa414243c1e53bf0ff22e2dd790d807b3d13feb5&amp;dn=Elementary+S02E10+HDTV+x264+AAC+%5BGWC%5D.mp4&amp;tr=udp%3A%2F%2Ftracker.openbittorrent.com%3A80&amp;tr=udp%3A%2F%2Fopen.demonii.com%3A1337&amp;tr=udp%3A%2F%2Ftracker.coppersurfer.tk%3A6969&amp;tr=udp%3A%2F%2Fexodus.desync.com%3A6969","seeders":0,"leechers":0,"uploader":"canc232","files":1,"time":1386308994,"description":"Elementary S02E10 HDTV x264 AAC [GWC] \n\n\n\nSCREENS :\n &lt;a href=&quot;\nhttp://s20.postimg.org/nl5eevpx9/elementary_210_hdtv_10_11_01.jpg&quot; rel=&quot;nofollow&quot; target=&quot;_NEW&quot;&gt;\nhttp://s20.postimg.org/nl5eevpx9/elementary_210_hdtv_10_11_01.jpg&lt;/a&gt;\n &lt;a href=&quot;\nhttp://s20.postimg.org/ksc6uupkt/elementary_210_hdtv_10_11_11.jpg&quot; rel=&quot;nofollow&quot; target=&quot;_NEW&quot;&gt;\nhttp://s20.postimg.org/ksc6uupkt/elementary_210_hdtv_10_11_11.jpg&lt;/a&gt;\n &lt;a href=&quot;\nhttp://s20.postimg.org/ue5rb5gql/elementary_210_hdtv_10_11_15.jpg&quot; rel=&quot;nofollow&quot; target=&quot;_NEW&quot;&gt;\nhttp://s20.postimg.org/ue5rb5gql/elementary_210_hdtv_10_11_15.jpg&lt;/a&gt;\n\n\n\n\nMEDIA INFO :\nGeneral \nFormat profile : Base Media \nFile size : 129 MiB \nDuration : 42mn 57s \nOverall bit rate : 419 Kbps \n\nVideo \nID : 1 \nFormat : AVC \nFormat profile : &lt;a class=&quot;__cf_email__&quot; href=&quot;/cdn-cgi/l/email-protection&quot; data-cfemail=&quot;8bc3e2ece3cbc7b8a5bb&quot;&gt;[email&amp;#160;protected]&lt;/a&gt;&lt;script data-cfhash='f9e31' type=&quot;text/javascript&quot;&gt;\n/* &lt;![CDATA[ */!function(){try{var t=&quot;currentScript&quot;in document?document.currentScript:function(){for(var t=document.getElementsByTagName(&quot;script&quot;),e=t.length;e--;)if(t[e].getAttribute(&quot;data-cfhash&quot;))return t[e]}();if(t&amp;&amp;t.previousSibling){var e,r,n,i,c=t.previousSibling,a=c.getAttribute(&quot;data-cfemail&quot;);if(a){for(e=&quot;&quot;,r=parseInt(a.substr(0,2),16),n=2;a.length-n;n+=2)i=parseInt(a.substr(n,2),16)^r,e+=String.fromCharCode(i);e=document.createTextNode(e),c.parentNode.replaceChild(e,c)}t.parentNode.removeChild(t);}}catch(u){}}()/* ]]&gt; */&lt;/script&gt; \nFormat settings, CABAC : Yes \nFormat settings, ReFrames : 5 frames \nDuration : 42mn 57s \nBit rate : 356 Kbps \nWidth : 720 pixels \nHeight : 404 pixels \nDisplay aspect ratio : 16:9 \nFrame rate mode : Variable \nFrame rate : 23.976 fps\nStream size : 109 MiB (85%) \nTitle : Elementary S02E10 HDTV x264 AAC [GWC] \nWriting library : x264 core\nLanguage : English \n\nAudio\nFormat : AAC \nFormat profile : HE-AAC / LC \nDuration : 42mn 57s \nBit rate mode : Variable \nChannel(s) : 2 channels \nSampling rate : 48.0 KHz / 24.0 KHz\nStream size : 18.4 MiB\nLanguage : English","torrent":{"xt":"urn:btih:fa414243c1e53bf0ff22e2dd790d807b3d13feb5","amp;dn":"Elementary+S02E10+HDTV+x264+AAC+%5BGWC%5D.mp4","amp;tr":["udp%3A%2F%2Ftracker.openbittorrent.com%3A80","udp%3A%2F%2Fopen.demonii.com%3A1337","udp%3A%2F%2Ftracker.coppersurfer.tk%3A6969","udp%3A%2F%2Fexodus.desync.com%3A6969"],"infoHash":"fa414243c1e53bf0ff22e2dd790d807b3d13feb5","infoHashBuffer":{"type":"Buffer","data":[250,65,66,67,193,229,59,240,255,34,226,221,121,13,128,123,61,19,254,181]},"announce":[],"urlList":[]}}